<svg width="15" height="11" viewBox="0 0 15 11" fill="none" xmlns="http://www.w3.org/2000/svg">
<mask id="mask0_1016_9410" style="mask-type:alpha" maskUnits="userSpaceOnUse" x="0" y="0" width="15" height="11">
<rect width="15" height="11" fill="white"/>
</mask>
<g mask="url(#mask0_1016_9410)">
<path fill-rule="evenodd" clip-rule="evenodd" d="M0 0H15V11H0V0Z" fill="#F7FCFF"/>
<path fill-rule="evenodd" clip-rule="evenodd" d="M0 6.72217V7.63883H15V6.72217H0Z" fill="#E31D1C"/>
<path fill-rule="evenodd" clip-rule="evenodd" d="M0 8.40283V9.3195H15V8.40283H0Z" fill="#E31D1C"/>
<path fill-rule="evenodd" clip-rule="evenodd" d="M0 3.36133V4.27799H15V3.36133H0Z" fill="#E31D1C"/>
<path fill-rule="evenodd" clip-rule="evenodd" d="M0 10.0835V11.0002H15V10.0835H0Z" fill="#E31D1C"/>
<path fill-rule="evenodd" clip-rule="evenodd" d="M0 5.0415V5.95817H15V5.0415H0Z" fill="#E31D1C"/>
<path fill-rule="evenodd" clip-rule="evenodd" d="M0 0V0.916667H15V0H0Z" fill="#E31D1C"/>
<path fill-rule="evenodd" clip-rule="evenodd" d="M0 1.68066V2.59733H15V1.68066H0Z" fill="#E31D1C"/>
<rect width="9.375" height="5.95833" fill="#2E42A5"/>
<path fill-rule="evenodd" clip-rule="evenodd" d="M0.807256 1.34709L0.467 1.58033L0.581874 1.16526L0.279663 0.902216H0.674391L0.80678 0.563477L0.962017 0.902216H1.29851L1.03412 1.16526L1.13648 1.58033L0.807256 1.34709ZM2.68226 1.34709L2.342 1.58033L2.45687 1.16526L2.15466 0.902216H2.54939L2.68178 0.563477L2.83702 0.902216H3.17351L2.90912 1.16526L3.01148 1.58033L2.68226 1.34709ZM4.217 1.58033L4.55726 1.34709L4.88648 1.58033L4.78412 1.16526L5.04851 0.902216H4.71202L4.55678 0.563477L4.42439 0.902216H4.02966L4.33187 1.16526L4.217 1.58033ZM6.43226 1.34709L6.092 1.58033L6.20687 1.16526L5.90466 0.902216H6.29939L6.43178 0.563477L6.58702 0.902216H6.92351L6.65912 1.16526L6.76148 1.58033L6.43226 1.34709ZM0.467 3.41366L0.807256 3.18042L1.13648 3.41366L1.03412 2.99859L1.29851 2.73555H0.962017L0.80678 2.39681L0.674391 2.73555H0.279663L0.581874 2.99859L0.467 3.41366ZM2.68226 3.18042L2.342 3.41366L2.45687 2.99859L2.15466 2.73555H2.54939L2.68178 2.39681L2.83702 2.73555H3.17351L2.90912 2.99859L3.01148 3.41366L2.68226 3.18042ZM4.217 3.41366L4.55726 3.18042L4.88648 3.41366L4.78412 2.99859L5.04851 2.73555H4.71202L4.55678 2.39681L4.42439 2.73555H4.02966L4.33187 2.99859L4.217 3.41366ZM6.43226 3.18042L6.092 3.41366L6.20687 2.99859L5.90466 2.73555H6.29939L6.43178 2.39681L6.58702 2.73555H6.92351L6.65912 2.99859L6.76148 3.41366L6.43226 3.18042ZM0.467 5.247L0.807256 5.01376L1.13648 5.247L1.03412 4.83193L1.29851 4.56888H0.962017L0.80678 4.23014L0.674391 4.56888H0.279663L0.581874 4.83193L0.467 5.247ZM2.68226 5.01376L2.342 5.247L2.45687 4.83193L2.15466 4.56888H2.54939L2.68178 4.23014L2.83702 4.56888H3.17351L2.90912 4.83193L3.01148 5.247L2.68226 5.01376ZM4.217 5.247L4.55726 5.01376L4.88648 5.247L4.78412 4.83193L5.04851 4.56888H4.71202L4.55678 4.23014L4.42439 4.56888H4.02966L4.33187 4.83193L4.217 5.247ZM6.43226 5.01376L6.092 5.247L6.20687 4.83193L5.90466 4.56888H6.29939L6.43178 4.23014L6.58702 4.56888H6.92351L6.65912 4.83193L6.76148 5.247L6.43226 5.01376ZM7.967 1.58033L8.30726 1.34709L8.63648 1.58033L8.53412 1.16526L8.79851 0.902216H8.46202L8.30678 0.563477L8.17439 0.902216H7.77966L8.08187 1.16526L7.967 1.58033ZM8.30726 3.18042L7.967 3.41366L8.08187 2.99859L7.77966 2.73555H8.17439L8.30678 2.39681L8.46202 2.73555H8.79851L8.53412 2.99859L8.63648 3.41366L8.30726 3.18042ZM7.967 5.247L8.30726 5.01376L8.63648 5.247L8.53412 4.83193L8.79851 4.56888H8.46202L8.30678 4.23014L8.17439 4.56888H7.77966L8.08187 4.83193L7.967 5.247ZM1.74476 2.26376L1.4045 2.497L1.51937 2.08193L1.21716 1.81888H1.61189L1.74428 1.48014L1.89952 1.81888H2.23601L1.97162 2.08193L2.07398 2.497L1.74476 2.26376ZM3.2795 2.497L3.61976 2.26376L3.94898 2.497L3.84662 2.08193L4.11101 1.81888H3.77452L3.61928 1.48014L3.48689 1.81888H3.09216L3.39437 2.08193L3.2795 2.497ZM5.49476 2.26376L5.1545 2.497L5.26937 2.08193L4.96716 1.81888H5.36189L5.49428 1.48014L5.64952 1.81888H5.98601L5.72162 2.08193L5.82398 2.497L5.49476 2.26376ZM1.4045 4.33033L1.74476 4.09709L2.07398 4.33033L1.97162 3.91526L2.23601 3.65222H1.89952L1.74428 3.31348L1.61189 3.65222H1.21716L1.51937 3.91526L1.4045 4.33033ZM3.61976 4.09709L3.2795 4.33033L3.39437 3.91526L3.09216 3.65222H3.48689L3.61928 3.31348L3.77452 3.65222H4.11101L3.84662 3.91526L3.94898 4.33033L3.61976 4.09709ZM5.1545 4.33033L5.49476 4.09709L5.82398 4.33033L5.72162 3.91526L5.98601 3.65222H5.64952L5.49428 3.31348L5.36189 3.65222H4.96716L5.26937 3.91526L5.1545 4.33033ZM7.36976 2.26376L7.0295 2.497L7.14437 2.08193L6.84216 1.81888H7.23689L7.36928 1.48014L7.52452 1.81888H7.86101L7.59662 2.08193L7.69898 2.497L7.36976 2.26376ZM7.0295 4.33033L7.36976 4.09709L7.69898 4.33033L7.59662 3.91526L7.86101 3.65222H7.52452L7.36928 3.31348L7.23689 3.65222H6.84216L7.14437 3.91526L7.0295 4.33033Z" fill="#F7FCFF"/>
</g>
</svg>
