<svg width="15" height="15" viewBox="0 0 15 15" fill="none" xmlns="http://www.w3.org/2000/svg">
<g clip-path="url(#clip0_1205_10071)">
<path d="M7.5 15.001C11.6421 15.001 15 11.6431 15 7.50098C15 3.35884 11.6421 0.000976562 7.5 0.000976562C3.35786 0.000976562 0 3.35884 0 7.50098C0 11.6431 3.35786 15.001 7.5 15.001Z" fill="#1977F3"/>
<path d="M10.4194 9.66973L10.7516 7.50126H8.67175V6.09429C8.67175 5.50154 8.96179 4.92251 9.89415 4.92251H10.8402V3.07678C10.8402 3.07678 9.98169 2.93018 9.16113 2.93018C7.44829 2.93018 6.3282 3.968 6.3282 5.84854V7.50126H4.4234V9.66973H6.3282V14.9106C6.71 14.9707 7.10129 15.0013 7.49997 15.0013C7.89865 15.0013 8.28995 14.9696 8.67175 14.9106V9.66973H10.4194Z" fill="white"/>
</g>
<defs>
<clipPath id="clip0_1205_10071">
<rect width="15" height="15" fill="white"/>
</clipPath>
</defs>
</svg>
