<svg width="17" height="10" viewBox="0 0 17 10" fill="none" xmlns="http://www.w3.org/2000/svg">
<path d="M1.15405 0C1.01934 0 0.892433 0.021544 0.772324 0.0658436L3.17807 2.36214L5.61044 4.69959L5.65483 4.74897L5.72585 4.81481L5.79687 4.88066L5.9389 5.02058L8.02506 7.00412C8.0598 7.02413 8.16045 7.11058 8.2391 7.14702C8.34039 7.19397 8.45019 7.23723 8.56336 7.24098C8.68549 7.24504 8.81032 7.2126 8.92021 7.16303C9.00251 7.12591 9.03911 7.07271 9.13473 7.00412L11.5493 4.69136L13.9906 2.36214L16.3431 0.115226C16.1921 0.0393587 16.0248 0 15.846 0H1.15405ZM0.417232 0.279835C0.160682 0.50521 0 0.844028 0 1.22634V8.76543C0 9.07499 0.107237 9.3562 0.284073 9.57202L0.62141 9.27572L3.13368 7.01235L5.36188 5.01235L5.31749 4.96296L2.87624 2.63374L0.434987 0.296296L0.417232 0.279835ZM16.6627 0.353909L14.2836 2.63374L11.8512 4.96296L11.8068 5.00412L14.1238 7.08642L16.636 9.34979L16.7869 9.48148C16.9222 9.28026 17 9.03238 17 8.76543V1.22634C17 0.885457 16.8726 0.576342 16.6627 0.353909ZM5.64595 5.28395L3.42663 7.28395L0.905483 9.54732L0.585901 9.83539C0.754383 9.93599 0.946117 10 1.15405 10H15.846C16.0959 10 16.3227 9.91084 16.5117 9.76955L16.352 9.6214L13.8308 7.35802L11.5138 5.28395L9.42768 7.27572C9.31477 7.34512 9.23932 7.42209 9.12907 7.46936C8.95163 7.54544 8.75717 7.60979 8.5617 7.60701C8.36571 7.60422 8.17354 7.53311 7.99765 7.4529C7.90937 7.41264 7.86231 7.37262 7.75875 7.29218L5.64595 5.28395Z" fill="white"/>
</svg>
