<svg width="35" height="35" viewBox="0 0 35 35" fill="none" xmlns="http://www.w3.org/2000/svg">
<g clip-path="url(#clip0_1213_13370)">
<path d="M8.03158 0H26.9684C31.4179 0 35 3.58207 35 8.03156V26.9684C35 31.4179 31.4179 35 26.9684 35H8.03158C3.58208 35 0 31.4179 0 26.9684V8.03156C0 3.58207 3.58208 0 8.03158 0Z" fill="#6F57FF"/>
<path d="M10.154 13C10.0193 13 9.89243 13.0215 9.77232 13.0658L12.1781 15.3621L14.6104 17.6996L14.6548 17.749L14.7258 17.8148L14.7969 17.8807L14.9389 18.0206L17.0251 20.0041C17.0598 20.0241 17.1605 20.1106 17.2391 20.147C17.3404 20.194 17.4502 20.2372 17.5634 20.241C17.6855 20.245 17.8103 20.2126 17.9202 20.163C18.0025 20.1259 18.0391 20.0727 18.1347 20.0041L20.5493 17.6914L22.9906 15.3621L25.3431 13.1152C25.1921 13.0394 25.0248 13 24.846 13H10.154ZM9.41723 13.2798C9.16068 13.5052 9 13.844 9 14.2263V21.7654C9 22.075 9.10724 22.3562 9.28407 22.572L9.62141 22.2757L12.1337 20.0123L14.3619 18.0123L14.3175 17.963L11.8762 15.6337L9.43499 13.2963L9.41723 13.2798ZM25.6627 13.3539L23.2836 15.6337L20.8512 17.963L20.8068 18.0041L23.1238 20.0864L25.636 22.3498L25.7869 22.4815C25.9222 22.2803 26 22.0324 26 21.7654V14.2263C26 13.8855 25.8726 13.5763 25.6627 13.3539ZM14.646 18.284L12.4266 20.284L9.90548 22.5473L9.5859 22.8354C9.75438 22.936 9.94612 23 10.154 23H24.846C25.0959 23 25.3227 22.9108 25.5117 22.7695L25.352 22.6214L22.8308 20.358L20.5138 18.284L18.4277 20.2757C18.3148 20.3451 18.2393 20.4221 18.1291 20.4694C17.9516 20.5454 17.7572 20.6098 17.5617 20.607C17.3657 20.6042 17.1735 20.5331 16.9977 20.4529C16.9094 20.4126 16.8623 20.3726 16.7587 20.2922L14.646 18.284Z" fill="white"/>
</g>
<defs>
<clipPath id="clip0_1213_13370">
<rect width="35" height="35" rx="17.5" fill="white"/>
</clipPath>
</defs>
</svg>
