<svg width="15" height="15" viewBox="0 0 15 15" fill="none" xmlns="http://www.w3.org/2000/svg">
<path d="M3.44211 0H11.5579C13.4648 0 15 1.53517 15 3.4421V11.5579C15 13.4648 13.4648 15 11.5579 15H3.44211C1.53518 15 0 13.4648 0 11.5579V3.4421C0 1.53517 1.53518 0 3.44211 0V0Z" fill="url(#paint0_linear_1204_10160)"/>
<path d="M3.28646 4.26514C3.20742 4.26514 3.13297 4.27877 3.0625 4.3068L4.47396 5.75993L5.90104 7.2391L5.92708 7.27035L5.96875 7.31201L6.01042 7.35368L6.09375 7.44222L7.31771 8.69743C7.33809 8.7101 7.39714 8.7648 7.44328 8.78786C7.50271 8.81757 7.56713 8.84495 7.63353 8.84732C7.70518 8.84989 7.77842 8.82936 7.84289 8.79799C7.89118 8.7745 7.91265 8.74083 7.96875 8.69743L9.38542 7.23389L10.8177 5.75993L12.1979 4.33805C12.1093 4.29004 12.0112 4.26514 11.9062 4.26514H3.28646ZM2.85417 4.44222C2.70365 4.58484 2.60938 4.79925 2.60938 5.04118V9.81201C2.60938 10.0079 2.67229 10.1859 2.77604 10.3224L2.97396 10.1349L4.44792 8.70264L5.75521 7.43701L5.72917 7.40576L4.29687 5.9318L2.86458 4.45264L2.85417 4.44222ZM12.3854 4.4891L10.9896 5.9318L9.5625 7.40576L9.53646 7.4318L10.8958 8.74951L12.3698 10.1818L12.4583 10.2651C12.5377 10.1378 12.5833 9.98094 12.5833 9.81201V5.04118C12.5833 4.82547 12.5086 4.62985 12.3854 4.4891ZM5.92187 7.60889L4.61979 8.87451L3.14062 10.3068L2.95312 10.4891C3.05197 10.5528 3.16447 10.5933 3.28646 10.5933H11.9062C12.0529 10.5933 12.1859 10.5368 12.2969 10.4474L12.2031 10.3537L10.724 8.92139L9.36458 7.60889L8.14062 8.8693C8.07438 8.91322 8.03011 8.96193 7.96543 8.99184C7.86133 9.03998 7.74724 9.08071 7.63255 9.07895C7.51757 9.07718 7.40482 9.03219 7.30163 8.98143C7.24983 8.95595 7.22222 8.93062 7.16146 8.87972L5.92187 7.60889Z" fill="white"/>
<defs>
<linearGradient id="paint0_linear_1204_10160" x1="7.60502" y1="14.9398" x2="7.61962" y2="0.181085" gradientUnits="userSpaceOnUse">
<stop stop-color="#70EFFF"/>
<stop offset="1" stop-color="#5770FF"/>
</linearGradient>
</defs>
</svg>
