<svg width="16" height="14" viewBox="0 0 16 14" fill="none" xmlns="http://www.w3.org/2000/svg">
<path fill-rule="evenodd" clip-rule="evenodd" d="M4.03581 13.8008V4.66909H0.981344V13.8008H4.03581V13.8008ZM2.50856 3.42231C3.57371 3.42231 4.23668 2.7211 4.23668 1.84479C4.21683 0.948748 3.57372 0.266993 2.52877 0.266993C1.48393 0.266993 0.800781 0.948748 0.800781 1.84479C0.800781 2.7211 1.46361 3.42231 2.48865 3.42231H2.5085H2.50856Z" fill="white"/>
<path fill-rule="evenodd" clip-rule="evenodd" d="M5.72656 13.8008H8.781V8.70126C8.781 8.42834 8.80085 8.15569 8.8815 7.96059C9.10231 7.4153 9.6049 6.85054 10.4487 6.85054C11.554 6.85054 11.9961 7.68795 11.9961 8.91554V13.8008H15.0503V8.5648C15.0503 5.75995 13.5434 4.45481 11.5338 4.45481C9.88599 4.45481 9.16259 5.37003 8.76068 5.99342H8.78108V4.66909H5.72665C5.76673 5.52594 5.72665 13.8008 5.72665 13.8008H5.72656Z" fill="white"/>
</svg>
