<svg width="35" height="35" viewBox="0 0 35 35" fill="none" xmlns="http://www.w3.org/2000/svg">
<g clip-path="url(#clip0_1213_13356)">
<path d="M0 2.50718C0 1.12288 1.15795 0 2.58643 0H32.4136C33.842 0 35 1.12288 35 2.50718V32.4928C35 33.8776 33.842 35 32.4136 35H2.58643C1.15795 35 0 33.8776 0 32.4928V2.50718Z" fill="#3D7ADD"/>
<path fill-rule="evenodd" clip-rule="evenodd" d="M14.0358 23.8008V14.6691H10.9813V23.8008H14.0358ZM12.5086 13.4223C13.5737 13.4223 14.2367 12.7211 14.2367 11.8448C14.2168 10.9487 13.5737 10.267 12.5288 10.267C11.4839 10.267 10.8008 10.9487 10.8008 11.8448C10.8008 12.7211 11.4636 13.4223 12.4887 13.4223H12.5085H12.5086Z" fill="white"/>
<path fill-rule="evenodd" clip-rule="evenodd" d="M15.7266 23.8008H18.781V18.7013C18.781 18.4283 18.8008 18.1557 18.8815 17.9606C19.1023 17.4153 19.6049 16.8505 20.4487 16.8505C21.554 16.8505 21.9961 17.6879 21.9961 18.9155V23.8008H25.0503V18.5648C25.0503 15.76 23.5434 14.4548 21.5338 14.4548C19.886 14.4548 19.1626 15.37 18.7607 15.9934H18.7811V14.6691H15.7266C15.7667 15.5259 15.7266 23.8008 15.7266 23.8008H15.7266Z" fill="white"/>
</g>
<defs>
<clipPath id="clip0_1213_13356">
<rect width="35" height="35" rx="17.5" fill="white"/>
</clipPath>
</defs>
</svg>
