<svg width="35" height="35" viewBox="0 0 35 35" fill="none" xmlns="http://www.w3.org/2000/svg">
<path d="M35 0.492032C29.112 -1.14746 24.5467 1.70063 23 3.32962L31.8 12C32.3867 11.7898 35 10.2857 34.1429 6C33.6737 3.65421 34.4133 1.80572 35 0.492032Z" fill="#E096A0"/>
<path d="M0 0.492032C5.888 -1.14746 10.4533 1.70063 12 3.32962L3.2 12C2.61333 11.7898 0 10.2857 0.857142 6C1.3263 3.65421 0.586667 1.80572 0 0.492032Z" fill="#E096A0"/>
<g clip-path="url(#clip0_1215_11377)">
<path d="M0 2.50718C0 1.12288 1.15795 0 2.58643 0H32.4136C33.842 0 35 1.12288 35 2.50718V32.4928C35 33.8776 33.842 35 32.4136 35H2.58643C1.15795 35 0 33.8776 0 32.4928V2.50718V2.50718Z" fill="#FEDCD1"/>
<circle cx="9.5" cy="11.5" r="2.5" fill="#3F3943"/>
<circle cx="10" cy="11" r="1" fill="white"/>
<circle cx="25.5" cy="11.5" r="2.5" fill="#3F3943"/>
<circle cx="26" cy="11" r="1" fill="white"/>
<ellipse cx="17.5" cy="23" rx="8.5" ry="7" fill="#E096A0"/>
<circle cx="20.5" cy="21.5" r="1.5" fill="#653439"/>
<circle cx="14.5" cy="21.5" r="1.5" fill="#653439"/>
</g>
<defs>
<clipPath id="clip0_1215_11377">
<rect width="35" height="35" rx="17.5" fill="white"/>
</clipPath>
</defs>
</svg>
