<svg width="35" height="35" viewBox="0 0 35 35" fill="none" xmlns="http://www.w3.org/2000/svg">
<path d="M35 17.5C35 27.1649 27.1649 35 17.5 35C7.83501 35 0 27.1649 0 17.5C0 7.83501 7.83501 0 17.5 0C27.1649 0 35 7.83501 35 17.5Z" fill="#2CA5E0"/>
<path d="M20.4534 20.685C20.924 19.4182 22.647 14.6006 22.9236 13.3371C23.2364 11.9085 22.5816 11.769 21.0924 12.2482C19.6031 12.7273 15.7837 14.1217 15.1409 14.3465C14.4981 14.5712 11.3685 15.6073 10.7196 15.9164C9.39436 16.6166 10.039 17.6852 11.5206 18.24C15.9488 20.3337 14.6914 19.2668 16.6683 23.1408C17.0752 24.1305 18.0345 25.8163 18.9533 24.5419C19.4363 23.8172 20.0834 21.6812 20.4534 20.685Z" fill="white"/>
</svg>
