<svg width="15" height="15" viewBox="0 0 15 15" fill="none" xmlns="http://www.w3.org/2000/svg">
<path d="M15 7.5C15 11.6421 11.6421 15 7.5 15C3.35786 15 0 11.6421 0 7.5C0 3.35786 3.35786 0 7.5 0C11.6421 0 15 3.35786 15 7.5Z" fill="#2CA5E0"/>
<path d="M9.15617 9.21317C9.38691 8.58254 10.2318 6.18427 10.3674 5.55527C10.5208 4.84409 10.1997 4.77466 9.46947 5.01319C8.73921 5.25172 6.86639 5.94586 6.55118 6.05775C6.23596 6.16963 4.70137 6.6854 4.38321 6.8393C3.73336 7.18786 4.04948 7.71981 4.77596 7.99601C6.94731 9.03827 6.33076 8.50715 7.30015 10.4357C7.49965 10.9284 7.97006 11.7676 8.42059 11.1332C8.65744 10.7724 8.97471 9.70909 9.15617 9.21317V9.21317Z" fill="white"/>
</svg>
