<svg width="15" height="15" viewBox="0 0 15 15" fill="none" xmlns="http://www.w3.org/2000/svg">
<path d="M15 7.5C15 11.6421 11.6421 15 7.5 15C3.35786 15 0 11.6421 0 7.5C0 3.35786 3.35786 0 7.5 0C11.6421 0 15 3.35786 15 7.5Z" fill="#38BF4B"/>
<path fill-rule="evenodd" clip-rule="evenodd" d="M5.77979 4.32515C5.6507 4.01596 5.51485 4.0097 5.39222 4.00434L5.06208 4C4.94723 4 4.76061 4.04647 4.60285 4.23233C4.44509 4.41819 4 4.86738 4 5.78103C4 6.69467 4.61718 7.57751 4.70318 7.70155C4.78919 7.82559 5.89465 9.76026 7.6453 10.5046C9.1001 11.1232 9.39614 11.0002 9.71204 10.9693C10.0279 10.9384 10.731 10.5201 10.8745 10.0864C11.0179 9.65278 11.018 9.28127 10.975 9.20359C10.932 9.12591 10.8171 9.07975 10.6447 8.98682C10.4724 8.89389 9.62576 8.44469 9.4679 8.38267C9.31005 8.32065 9.19529 8.28984 9.08034 8.4757C8.96539 8.66156 8.63572 9.07965 8.53519 9.20359C8.43467 9.32753 8.33434 9.34308 8.16196 9.25026C7.98958 9.15743 7.43498 8.96126 6.77695 8.32863C6.26497 7.8364 5.91938 7.22852 5.81876 7.04276C5.71815 6.857 5.80808 6.75639 5.89446 6.66387C5.97175 6.58063 6.06665 6.44699 6.15293 6.33861C6.23921 6.23022 6.2676 6.15275 6.32493 6.02901C6.38227 5.90527 6.35369 5.79658 6.3106 5.70375C6.2675 5.61093 5.93287 4.69253 5.77979 4.32526" fill="white"/>
</svg>
