<svg width="35" height="35" viewBox="0 0 35 35" fill="none" xmlns="http://www.w3.org/2000/svg">
<path d="M35 17.5C35 27.165 27.165 35 17.5 35C7.83502 35 0 27.165 0 17.5C0 7.83502 7.83502 0 17.5 0C27.165 0 35 7.83502 35 17.5Z" fill="#28BE3D"/>
<path fill-rule="evenodd" clip-rule="evenodd" d="M14.0596 11.6039C13.8014 11.0296 13.5297 11.018 13.2844 11.0081L12.6242 11C12.3945 11 12.0212 11.0863 11.7057 11.4315C11.3902 11.7766 10.5 12.6109 10.5 14.3076C10.5 16.0044 11.7344 17.6439 11.9064 17.8743C12.0784 18.1047 14.2893 21.6976 17.7906 23.08C20.7002 24.2288 21.2923 24.0003 21.9241 23.9429C22.5559 23.8855 23.9621 23.1087 24.2489 22.3034C24.5358 21.498 24.536 20.8081 24.45 20.6638C24.364 20.5195 24.1343 20.4338 23.7895 20.2612C23.4447 20.0886 21.7515 19.2544 21.4358 19.1392C21.1201 19.0241 20.8906 18.9668 20.6607 19.312C20.4308 19.6572 19.7714 20.4336 19.5704 20.6638C19.3693 20.894 19.1687 20.9229 18.8239 20.7505C18.4792 20.5781 17.37 20.2138 16.0539 19.0389C15.0299 18.1247 14.3388 16.9958 14.1375 16.6508C13.9363 16.3059 14.1162 16.119 14.2889 15.9472C14.4435 15.7926 14.6333 15.5444 14.8059 15.3431C14.9784 15.1418 15.0352 14.998 15.1499 14.7682C15.2645 14.5384 15.2074 14.3365 15.1212 14.1641C15.035 13.9917 14.3657 12.2861 14.0596 11.604" fill="white"/>
</svg>
