<svg width="15" height="13" viewBox="0 0 15 13" fill="none" xmlns="http://www.w3.org/2000/svg">
<path fill-rule="evenodd" clip-rule="evenodd" d="M4.05958 0.603859C3.80139 0.0296399 3.52971 0.0180087 3.28445 0.00806632L2.62417 0C2.39446 0 2.02123 0.0862922 1.7057 0.431462C1.39018 0.776631 0.5 1.61085 0.5 3.30762C0.5 5.00439 1.73437 6.64395 1.90637 6.87431C2.07837 7.10467 4.28929 10.6976 7.7906 12.08C10.7002 13.2288 11.2923 13.0003 11.9241 12.9429C12.5559 12.8855 13.9621 12.1087 14.2489 11.3034C14.5358 10.498 14.536 9.80806 14.45 9.66381C14.364 9.51955 14.1343 9.43382 13.7895 9.26123C13.4447 9.08865 11.7515 8.25443 11.4358 8.13925C11.1201 8.02406 10.8906 7.96685 10.6607 8.31202C10.4308 8.65719 9.77143 9.43363 9.57039 9.66381C9.36935 9.89398 9.16868 9.92287 8.82392 9.75047C8.47917 9.57808 7.36996 9.21377 6.0539 8.03888C5.02995 7.12475 4.33876 5.99582 4.13753 5.65084C3.93629 5.30586 4.11616 5.11901 4.28892 4.94718C4.44349 4.7926 4.63329 4.54442 4.80586 4.34313C4.97842 4.14185 5.0352 3.99796 5.14986 3.76816C5.26453 3.53836 5.20739 3.33651 5.1212 3.16412C5.03501 2.99172 4.36574 1.28613 4.05958 0.604047" fill="white"/>
</svg>
