<svg width="39" height="40" viewBox="0 0 39 40" fill="none" xmlns="http://www.w3.org/2000/svg">
<g clip-path="url(#clip0_1121_9641)">
<path d="M39 20C39 9.23045 30.2696 0.5 19.5 0.5C8.73045 0.5 0 9.23045 0 20C0 30.7696 8.73045 39.5 19.5 39.5C30.2696 39.5 39 30.7696 39 20Z" fill="#6697FF"/>
<path d="M10.8574 14.9111V23.5675C10.8574 25.0855 12.0878 26.3159 13.6057 26.3159H24.5991C26.1171 26.3159 27.3474 25.0855 27.3474 23.5675L27.3471 14.9121" fill="white"/>
<path d="M22.1933 19.6448L26.3214 16.8461C26.9635 16.4118 27.3473 15.6872 27.3473 14.9122C27.3473 13.6204 26.3009 12.5742 25.0101 12.5742H13.2078C11.917 12.5742 10.8711 13.6204 10.8711 14.9112C10.8711 15.6862 11.2549 16.4109 11.8971 16.8461L16.0251 19.6448C17.8876 20.9072 20.3309 20.9072 22.1933 19.6448Z" fill="white"/>
<path d="M10 15.5439L19.1025 20.7454L27.7715 15.5439" stroke="#6697FF" stroke-width="2"/>
<path fill-rule="evenodd" clip-rule="evenodd" d="M20.299 27.4807C22.8725 25.9334 24.586 24.9048 25.4481 24.4018C27.9025 22.9734 28.4238 22.7139 28.7738 22.6596C28.8518 22.6492 29.0255 22.6421 29.155 22.7202C29.2589 22.7859 29.2958 22.8843 29.3217 22.9602C29.3476 23.0361 29.3849 23.1979 29.3858 23.3248C29.4417 24.8257 29.3092 28.5027 29.2161 30.198C29.1765 30.9177 28.95 31.1858 28.7034 31.2422C28.1635 31.3614 27.6963 31.0104 27.1282 30.7363C26.23 30.3075 25.7252 30.033 24.8515 29.6088C23.8425 29.1233 24.3989 28.7082 24.857 28.0919C24.9789 27.9329 27.0848 25.4314 27.1058 25.2302C27.1105 25.2057 27.0981 25.1121 27.0373 25.0725C26.9764 25.033 26.9005 25.0589 26.8402 25.0827C26.7564 25.1097 25.5614 26.157 23.2386 28.2188C22.8982 28.5259 22.5793 28.6951 22.2739 28.7276C21.9375 28.7642 21.274 28.6694 20.7696 28.5775C20.1597 28.4676 19.6782 28.4282 19.6738 28.0954C19.6745 27.9207 19.8859 27.718 20.299 27.4807Z" fill="white"/>
<path fill-rule="evenodd" clip-rule="evenodd" d="M21.2961 28.6632C21.1899 28.648 21.0837 28.6313 20.981 28.6141C20.9696 28.6122 20.9584 28.6103 20.9472 28.6084C20.8866 28.598 20.8273 28.5876 20.77 28.5772C20.7003 28.5646 20.6323 28.553 20.5665 28.5417C20.0563 28.4545 19.6781 28.3899 19.6742 28.0951C19.6749 27.9204 19.8863 27.7177 20.2994 27.4804C20.5354 27.3385 20.7642 27.201 20.9858 27.0679C21.0068 27.0552 21.0276 27.0427 21.0485 27.0302C21.0499 27.0293 21.0513 27.0284 21.0527 27.0277C21.1226 26.9856 21.1918 26.944 21.2602 26.9029C22.3088 26.2727 23.1865 25.7459 23.8938 25.3232C24.5653 24.922 25.0833 24.6145 25.4486 24.4015C25.7886 24.2035 26.0916 24.0281 26.362 23.8725C26.3874 23.8579 26.4124 23.8435 26.4371 23.8293C26.7684 23.6391 27.0495 23.4797 27.2896 23.346C28.2237 22.826 28.538 22.6959 28.7743 22.6592C28.8523 22.6489 29.026 22.6418 29.1554 22.7199C29.2593 22.7855 29.2962 22.8839 29.3221 22.9599C29.348 23.0358 29.3853 23.1976 29.3862 23.3245C29.4421 24.8254 29.3097 28.5024 29.2166 30.1977C29.1769 30.9174 28.9504 31.1855 28.7039 31.2419C28.2741 31.3368 27.8904 31.1337 27.4651 30.9087C27.3562 30.851 27.2445 30.7919 27.1287 30.736C26.6371 30.5013 26.2634 30.3129 25.8827 30.1209C25.5675 29.9619 25.2476 29.8005 24.8519 29.6085C24.7092 29.5399 24.5978 29.4726 24.513 29.406C24.0811 29.0665 24.3397 28.7437 24.6666 28.3358C24.7292 28.2578 24.7943 28.1766 24.8575 28.0916C24.8824 28.059 24.9907 27.9281 25.1472 27.7389C25.3974 27.4362 25.771 26.9844 26.1251 26.5463C26.4225 26.1786 26.706 25.8206 26.8911 25.5689C26.9177 25.5328 26.9423 25.4989 26.9645 25.4674C26.9707 25.4586 26.9768 25.45 26.9827 25.4417C27.0581 25.3335 27.1032 25.2584 27.1062 25.2299C27.1109 25.2054 27.0985 25.1118 27.0377 25.0722C26.9769 25.0326 26.9009 25.0586 26.8406 25.0824C26.8284 25.0863 26.7931 25.1116 26.7343 25.1583C26.7231 25.1672 26.7111 25.1768 26.6981 25.1873C26.586 25.2782 26.4096 25.4277 26.1689 25.6359C26.1685 25.6363 26.168 25.6366 26.1676 25.637C26.0183 25.7661 25.8443 25.9178 25.6456 26.0918C25.4324 26.2786 25.1907 26.4911 24.9205 26.7296C24.6618 26.9578 24.377 27.2096 24.066 27.4851C24.0623 27.4884 24.0586 27.4917 24.055 27.4949C23.8004 27.7204 23.5285 27.9616 23.239 28.2185C23.0123 28.423 22.7952 28.5663 22.5852 28.6489C22.4799 28.6903 22.3764 28.7164 22.2743 28.7273C22.1149 28.7446 21.882 28.7325 21.6274 28.7051C21.5195 28.6935 21.4078 28.6792 21.2961 28.6632ZM22.4578 30.4513C22.0849 30.4913 21.6721 30.4551 21.3905 30.4233C21.0691 30.387 20.7371 30.3335 20.4613 30.2832C20.4619 30.2833 20.4624 30.2834 20.4629 30.2835M23.0083 30.3371C23.3366 30.7594 23.7691 31.0113 24.0972 31.1695C24.4165 31.3245 24.734 31.4841 25.0595 31.6478C25.4786 31.8585 25.9111 32.076 26.3782 32.299C26.4614 32.3393 26.5384 32.3799 26.6426 32.435C26.6699 32.4494 26.699 32.4649 26.7307 32.4815C26.8657 32.5527 27.0524 32.6498 27.2561 32.7353C27.6745 32.9107 28.3152 33.1032 29.0774 32.935L29.0841 32.9335L29.0909 32.932C30.5508 32.5977 30.8989 31.1788 30.9477 30.2931V30.2928C31.0404 28.6064 31.1769 24.8789 31.1195 23.2785C31.1121 22.9287 31.0289 22.5932 30.9629 22.3996C30.9617 22.396 30.9603 22.3919 30.9587 22.3871C30.9134 22.252 30.7123 21.6524 30.081 21.2539L30.0662 21.2446L30.0514 21.2356C29.3915 20.8373 28.7081 20.9191 28.5467 20.9404L28.5277 20.943L28.5086 20.946C28.0308 21.02 27.596 21.2191 27.1002 21.477C26.5773 21.7492 25.7986 22.1916 24.5765 22.9029L24.5747 22.904C23.7016 23.4134 21.9799 24.447 19.4198 25.9862C19.1635 26.1345 18.8711 26.3263 18.6205 26.5711C18.4024 26.7841 17.9436 27.3007 17.9404 28.0883V28.103L17.9406 28.1179C17.9481 28.6846 18.1854 29.1916 18.571 29.5559C18.8949 29.8617 19.2524 30.0004 19.4508 30.0659C19.7453 30.1633 20.1372 30.2288 20.3564 30.2654C20.3984 30.2724 20.434 30.2784 20.4613 30.2832" fill="#6697FF"/>
</g>
<defs>
<clipPath id="clip0_1121_9641">
<rect width="39" height="39" fill="white" transform="translate(0 0.5)"/>
</clipPath>
</defs>
</svg>
