<svg width="39" height="39" viewBox="0 0 39 39" fill="none" xmlns="http://www.w3.org/2000/svg">
<rect width="39" height="39" rx="19.5" fill="#6697FF"/>
<path d="M8.98926 13.77V23.7554C8.98926 25.5064 10.4085 26.9257 12.1595 26.9257H24.8407C26.5918 26.9257 28.011 25.5064 28.011 23.7554L28.0106 13.7711" fill="white"/>
<path d="M22.0653 19.2303L26.8271 16.0019C27.5678 15.501 28.0106 14.6651 28.0106 13.7711C28.0106 12.281 26.8035 11.0742 25.3145 11.0742H11.7002C10.2112 11.0742 9.00474 12.281 9.00474 13.77C9.00474 14.664 9.44752 15.4999 10.1883 16.0019L14.9501 19.2303C17.0985 20.6865 19.9169 20.6865 22.0653 19.2303Z" fill="white"/>
<path d="M8 14.5L18.5 20.5L28.5 14.5" stroke="#6697FF" stroke-width="2"/>
<path fill-rule="evenodd" clip-rule="evenodd" d="M19.8802 28.2694C22.8489 26.4845 24.8254 25.298 25.8199 24.7177C28.6511 23.07 29.2525 22.7707 29.6562 22.708C29.7462 22.6961 29.9466 22.6879 30.0959 22.778C30.2158 22.8537 30.2583 22.9672 30.2882 23.0548C30.3181 23.1424 30.3611 23.329 30.3622 23.4754C30.4266 25.2067 30.2738 29.4483 30.1664 31.4038C30.1207 32.234 29.8594 32.5433 29.575 32.6084C28.9522 32.7458 28.4133 32.341 27.758 32.0248C26.7218 31.5301 26.1396 31.2135 25.1317 30.7242C23.9678 30.1641 24.6096 29.6853 25.1381 28.9744C25.2787 28.791 27.7079 25.9054 27.7321 25.6733C27.7375 25.6451 27.7232 25.5371 27.6531 25.4914C27.5829 25.4458 27.4953 25.4757 27.4257 25.5032C27.3291 25.5343 25.9506 26.7424 23.2712 29.1208C22.8785 29.475 22.5106 29.6702 22.1584 29.7077C21.7703 29.7499 21.0049 29.6406 20.4231 29.5345C19.7196 29.4078 19.1642 29.3623 19.1591 28.9784C19.1599 28.7769 19.4037 28.5431 19.8802 28.2694Z" fill="white"/>
<path fill-rule="evenodd" clip-rule="evenodd" d="M21.0301 29.6337C20.9076 29.6162 20.7851 29.597 20.6666 29.5771C20.6535 29.5749 20.6405 29.5727 20.6276 29.5705C20.5577 29.5586 20.4893 29.5465 20.4232 29.5345C20.3428 29.52 20.2644 29.5066 20.1884 29.4936C19.5999 29.393 19.1637 29.3185 19.1592 28.9784C19.16 28.7769 19.4038 28.5431 19.8803 28.2694C20.1526 28.1057 20.4165 27.9471 20.6721 27.7935C20.6963 27.7789 20.7204 27.7644 20.7444 27.75C20.7461 27.749 20.7477 27.748 20.7493 27.7471C20.8299 27.6986 20.9097 27.6506 20.9887 27.6032C22.1983 26.8762 23.2107 26.2686 24.0266 25.781C24.8012 25.3182 25.3987 24.9635 25.8201 24.7177C26.2123 24.4894 26.5618 24.287 26.8738 24.1075C26.903 24.0907 26.9319 24.0741 26.9604 24.0577C27.3425 23.8383 27.6668 23.6544 27.9438 23.5002C29.0213 22.9004 29.3838 22.7503 29.6564 22.708C29.7464 22.6961 29.9467 22.6879 30.096 22.778C30.2159 22.8537 30.2584 22.9672 30.2883 23.0548C30.3182 23.1424 30.3612 23.329 30.3623 23.4754C30.4267 25.2067 30.274 29.4483 30.1666 31.4038C30.1208 32.234 29.8596 32.5433 29.5752 32.6084C29.0794 32.7178 28.6368 32.4835 28.1462 32.224C28.0206 32.1575 27.8917 32.0893 27.7581 32.0248C27.1911 31.7541 26.76 31.5367 26.3208 31.3152C25.9573 31.1319 25.5882 30.9457 25.1318 30.7242C24.9672 30.645 24.8387 30.5674 24.7409 30.4906C24.2426 30.099 24.541 29.7266 24.9181 29.2561C24.9903 29.1661 25.0653 29.0724 25.1382 28.9744C25.167 28.9368 25.2919 28.7858 25.4724 28.5675C25.761 28.2184 26.192 27.6972 26.6005 27.1919C26.9435 26.7677 27.2706 26.3547 27.4841 26.0644C27.5148 26.0227 27.5431 25.9836 27.5688 25.9473C27.5759 25.9371 27.5829 25.9272 27.5897 25.9176C27.6767 25.7928 27.7287 25.7062 27.7322 25.6733C27.7376 25.6451 27.7233 25.5371 27.6532 25.4914C27.583 25.4458 27.4954 25.4757 27.4258 25.5032C27.4118 25.5077 27.371 25.5369 27.3032 25.5907C27.2903 25.601 27.2764 25.6121 27.2615 25.6242C27.1321 25.729 26.9287 25.9015 26.651 26.1417C26.6505 26.1421 26.65 26.1425 26.6495 26.1429C26.4773 26.2919 26.2766 26.4668 26.0473 26.6676C25.8014 26.883 25.5226 27.1282 25.2109 27.4033C24.9125 27.6665 24.584 27.957 24.2252 28.2748C24.221 28.2786 24.2167 28.2824 24.2125 28.2861C23.9189 28.5462 23.6052 28.8244 23.2713 29.1208C23.0098 29.3567 22.7593 29.522 22.5171 29.6173C22.3956 29.665 22.2762 29.6951 22.1585 29.7077C21.9746 29.7277 21.7059 29.7137 21.4122 29.6821C21.2878 29.6687 21.1589 29.6522 21.0301 29.6337ZM22.3701 31.6964C21.94 31.7425 21.4638 31.7008 21.139 31.6641C20.7682 31.6222 20.3852 31.5605 20.0671 31.5025C20.0678 31.5026 20.0684 31.5027 20.069 31.5028M23.0052 31.5646C23.3839 32.0518 23.8828 32.3424 24.2612 32.5248C24.6296 32.7037 24.9958 32.8878 25.3713 33.0766C25.8547 33.3196 26.3536 33.5705 26.8924 33.8278C26.9884 33.8742 27.0772 33.9211 27.1974 33.9847C27.2289 34.0013 27.2625 34.0191 27.299 34.0383C27.4548 34.1204 27.6702 34.2324 27.9051 34.331C28.3877 34.5334 29.1268 34.7554 30.006 34.5614L30.0138 34.5597L30.0216 34.5579C31.7057 34.1723 32.1072 32.5356 32.1635 31.5139L32.1635 31.5135C32.2704 29.5682 32.4279 25.2684 32.3617 23.4223C32.3531 23.0188 32.2572 22.6318 32.181 22.4085C32.1796 22.4044 32.178 22.3996 32.1762 22.3941C32.1239 22.2382 31.8919 21.5466 31.1637 21.0869L31.1467 21.0762L31.1296 21.0658C30.3684 20.6063 29.5801 20.7007 29.3939 20.7253L29.3719 20.7283L29.3499 20.7317C28.7988 20.8171 28.2972 21.0467 27.7253 21.3443C27.1221 21.6582 26.2239 22.1686 24.8141 22.9891L24.812 22.9903C23.8049 23.578 21.8189 24.7702 18.8657 26.5458C18.57 26.7168 18.2327 26.9381 17.9437 27.2204C17.6921 27.4662 17.1628 28.0621 17.1592 28.9706L17.1592 28.9876L17.1594 29.0047C17.168 29.6584 17.4418 30.2433 17.8866 30.6635C18.2602 31.0163 18.6726 31.1762 18.9015 31.2518C19.2412 31.3642 19.6933 31.4397 19.9461 31.4819C19.9945 31.49 20.0356 31.4969 20.0671 31.5025" fill="#6697FF"/>
</svg>
