<svg width="39" height="40" viewBox="0 0 39 40" fill="none" xmlns="http://www.w3.org/2000/svg">
<rect y="0.5" width="39" height="39" rx="19.5" fill="#2CA5E0" fill-opacity="0.13"/>
<rect x="5.43457" y="11.418" width="18.1629" height="18.1629" rx="9.08147" fill="url(#paint0_linear_1103_9576)" fill-opacity="0.6"/>
<g clip-path="url(#clip0_1103_9576)">
<g clip-path="url(#clip1_1103_9576)">
<path d="M14.3343 18.9054C13.2369 18.9054 12.3111 19.797 12.3111 20.9286C12.3111 22.0603 13.2027 22.9519 14.3343 22.9519C15.4316 22.9519 16.3575 22.0603 16.3575 20.9286C16.3575 19.797 15.4316 18.9054 14.3343 18.9054ZM11.1794 20.8943C11.1794 19.1797 12.5854 17.7738 14.3 17.7738C16.0146 17.7738 17.4206 19.1797 17.4206 20.8943C17.4206 20.9972 17.4206 21.1344 17.3863 21.2373C17.352 21.5459 17.592 21.7859 17.9006 21.7859C18.415 21.7859 18.4836 21.1344 18.4836 20.8943C18.4836 18.5968 16.5975 16.7107 14.3 16.7107C12.0024 16.7107 10.1164 18.5968 10.1164 20.8943C10.1164 23.1919 12.0024 25.078 14.3 25.078C15.5345 25.078 16.6318 24.5636 17.3863 23.7063L18.2436 24.4264C17.3177 25.5237 15.8774 26.2096 14.3343 26.2096C11.3852 26.2096 9.01904 23.8434 9.01904 20.8943C9.01904 17.9795 11.3852 15.5791 14.3343 15.5791C17.2491 15.5791 19.6152 17.9795 19.6152 20.8943C19.6152 22.0603 19.0666 23.0204 17.9349 23.0204C17.4548 23.0204 17.1462 22.7804 16.9748 22.5404C16.4261 23.4319 15.4316 24.0149 14.3 24.0149C12.5854 24.0149 11.1794 22.6432 11.1794 20.8943ZM14.3343 19.9685C14.8487 19.9685 15.2602 20.38 15.2602 20.8943C15.2602 21.4087 14.8487 21.8202 14.3343 21.8202C13.8199 21.8202 13.4084 21.4087 13.4084 20.8943C13.4084 20.38 13.8199 19.9685 14.3343 19.9685Z" fill="white"/>
</g>
</g>
<g clip-path="url(#clip2_1103_9576)">
<path d="M33.7561 20.493C33.7561 25.5854 29.6279 29.7136 24.5355 29.7136C19.4431 29.7136 15.3149 25.5854 15.3149 20.493C15.3149 15.4006 19.4431 11.2725 24.5355 11.2725C29.6279 11.2725 33.7561 15.4006 33.7561 20.493Z" fill="url(#paint1_linear_1103_9576)"/>
<path d="M19.912 20.392C22.2307 19.2952 23.7765 18.572 24.5495 18.2227C26.7588 17.225 27.2174 17.0518 27.5168 17.046C27.5827 17.0447 27.7293 17.0624 27.825 17.1465C27.9045 17.2173 27.9269 17.3131 27.9381 17.3803C27.948 17.4475 27.9617 17.6007 27.9505 17.7203C27.8312 19.0859 27.3131 22.3998 27.0496 23.9294C26.939 24.5766 26.7191 24.7936 26.5066 24.8148C26.0443 24.8609 25.6939 24.4834 25.2466 24.165C24.547 23.6667 24.1518 23.3566 23.4721 22.8704C22.6868 22.3085 23.1962 21.9996 23.6436 21.4949C23.7604 21.3628 25.7958 19.3528 25.8343 19.1705C25.8393 19.1477 25.8443 19.0627 25.7971 19.0179C25.7511 18.9729 25.6827 18.9883 25.633 19.0005C25.5622 19.0177 24.445 19.8204 22.2779 21.4083C21.961 21.6449 21.674 21.7603 21.4155 21.7542C21.1322 21.7476 20.5855 21.5799 20.1792 21.4366C19.6821 21.2608 19.2857 21.1678 19.3205 20.8692C19.3379 20.7137 19.5355 20.5546 19.912 20.392V20.392Z" fill="white"/>
</g>
<defs>
<linearGradient id="paint0_linear_1103_9576" x1="14.516" y1="11.418" x2="14.516" y2="29.5809" gradientUnits="userSpaceOnUse">
<stop stop-color="#2AABEE"/>
<stop offset="1" stop-color="#229ED9"/>
</linearGradient>
<linearGradient id="paint1_linear_1103_9576" x1="24.5355" y1="11.2725" x2="24.5355" y2="29.7136" gradientUnits="userSpaceOnUse">
<stop stop-color="#2AABEE"/>
<stop offset="1" stop-color="#229ED9"/>
</linearGradient>
<clipPath id="clip0_1103_9576">
<rect width="11.0557" height="11.0557" fill="white" transform="translate(8.59375 15.3662)"/>
</clipPath>
<clipPath id="clip1_1103_9576">
<rect width="10.6305" height="10.6305" fill="white" transform="translate(9.01904 15.5791)"/>
</clipPath>
<clipPath id="clip2_1103_9576">
<rect width="19" height="19" fill="white" transform="translate(15 11)"/>
</clipPath>
</defs>
</svg>
