<svg width="39" height="39" viewBox="0 0 39 39" fill="none" xmlns="http://www.w3.org/2000/svg">
<g clip-path="url(#clip0_1121_9509)">
<path d="M39 19.5C39 8.73045 30.2696 0 19.5 0C8.73045 0 0 8.73045 0 19.5C0 30.2696 8.73045 39 19.5 39C30.2696 39 39 30.2696 39 19.5Z" fill="#28A9EA"/>
<path d="M39 2C39 0.895431 38.1046 0 37 0C35.8954 0 35 0.895431 35 2C35 3.10457 35.8954 4 37 4C38.1046 4 39 3.10457 39 2Z" fill="#28A9EA"/>
<path d="M39 19.5C39 8.73045 30.2696 0 19.5 0C8.73045 0 0 8.73045 0 19.5C0 30.2696 8.73045 39 19.5 39C30.2696 39 39 30.2696 39 19.5Z" fill="#2CA5E0" fill-opacity="0.15"/>
<path d="M31 19.5C31 25.8513 25.8513 31 19.5 31C13.1487 31 8 25.8513 8 19.5C8 13.1487 13.1487 8 19.5 8C25.8513 8 31 13.1487 31 19.5Z" fill="white"/>
<path d="M14.2049 19.3634C17.1339 17.9779 19.0865 17.0645 20.0628 16.6231C22.8536 15.363 23.4328 15.1441 23.811 15.1368C23.8942 15.1353 24.0794 15.1576 24.2003 15.2638C24.3008 15.3533 24.329 15.4743 24.3432 15.5592C24.3557 15.6441 24.373 15.8375 24.3589 15.9885C24.2082 17.7135 23.5537 21.8996 23.2209 23.8317C23.0812 24.6492 22.8034 24.9233 22.535 24.95C21.9511 25.0083 21.5084 24.5314 20.9433 24.1293C20.0596 23.4998 19.5605 23.1081 18.7019 22.4939C17.7099 21.7842 18.3535 21.394 18.9185 20.7565C19.0661 20.5896 21.6371 18.0507 21.6858 17.8204C21.692 17.7916 21.6983 17.6842 21.6387 17.6276C21.5806 17.5709 21.4942 17.5903 21.4315 17.6056C21.342 17.6275 19.9309 18.6413 17.1935 20.6471C16.7932 20.946 16.4306 21.0918 16.1041 21.0841C15.7463 21.0758 15.0557 20.8639 14.5424 20.6829C13.9146 20.4608 13.4138 20.3433 13.4578 19.9661C13.4797 19.7697 13.7294 19.5688 14.2049 19.3634Z" fill="#29A9E9"/>
</g>
<defs>
<clipPath id="clip0_1121_9509">
<rect width="39" height="39" fill="white"/>
</clipPath>
</defs>
</svg>
