<svg width="39" height="40" viewBox="0 0 39 40" fill="none" xmlns="http://www.w3.org/2000/svg">
<g clip-path="url(#clip0_1121_9634)">
<path d="M39 20C39 9.23045 30.2696 0.5 19.5 0.5C8.73045 0.5 0 9.23045 0 20C0 30.7696 8.73045 39.5 19.5 39.5C30.2696 39.5 39 30.7696 39 20Z" fill="#28A9EA"/>
<path d="M39 20C39 9.23045 30.2696 0.5 19.5 0.5C8.73045 0.5 0 9.23045 0 20C0 30.7696 8.73045 39.5 19.5 39.5C30.2696 39.5 39 30.7696 39 20Z" fill="#2CA5E0" fill-opacity="0.15"/>
<path d="M31 20C31 26.3513 25.8513 31.5 19.5 31.5C13.1487 31.5 8 26.3513 8 20C8 13.6487 13.1487 8.5 19.5 8.5C25.8513 8.5 31 13.6487 31 20Z" fill="white"/>
<path d="M14.2049 19.8634C17.1339 18.4779 19.0865 17.5645 20.0628 17.1231C22.8536 15.863 23.4328 15.6441 23.811 15.6368C23.8942 15.6353 24.0794 15.6576 24.2003 15.7638C24.3008 15.8533 24.329 15.9743 24.3432 16.0592C24.3557 16.1441 24.373 16.3375 24.3589 16.4885C24.2082 18.2135 23.5537 22.3996 23.2209 24.3317C23.0812 25.1492 22.8034 25.4233 22.535 25.45C21.9511 25.5083 21.5084 25.0314 20.9433 24.6293C20.0596 23.9998 19.5605 23.6081 18.7019 22.9939C17.7099 22.2842 18.3535 21.894 18.9185 21.2565C19.0661 21.0896 21.6371 18.5507 21.6858 18.3204C21.692 18.2916 21.6983 18.1842 21.6387 18.1276C21.5806 18.0709 21.4942 18.0903 21.4315 18.1056C21.342 18.1275 19.9309 19.1413 17.1935 21.1471C16.7932 21.446 16.4306 21.5918 16.1041 21.5841C15.7463 21.5758 15.0557 21.3639 14.5424 21.1829C13.9146 20.9608 13.4138 20.8433 13.4578 20.4661C13.4797 20.2697 13.7294 20.0688 14.2049 19.8634Z" fill="#29A9E9"/>
<circle cx="30" cy="8.5" r="2" fill="white"/>
</g>
<defs>
<clipPath id="clip0_1121_9634">
<rect width="39" height="39" fill="white" transform="translate(0 0.5)"/>
</clipPath>
</defs>
</svg>
