<svg width="39" height="40" viewBox="0 0 39 40" fill="none" xmlns="http://www.w3.org/2000/svg">
<rect y="0.5" width="39" height="39" rx="19.5" fill="#2CA5E0" fill-opacity="0.15"/>
<circle cx="36" cy="4" r="2" fill="url(#paint0_linear_1103_9552)"/>
<path d="M31 20C31 26.3513 25.8513 31.5 19.5 31.5C13.1487 31.5 8 26.3513 8 20C8 13.6487 13.1487 8.5 19.5 8.5C25.8513 8.5 31 13.6487 31 20Z" fill="url(#paint1_linear_1103_9552)"/>
<path d="M14.2045 19.8634C17.1334 18.4779 19.086 17.5645 20.0623 17.1231C22.8531 15.863 23.4323 15.6441 23.8106 15.6368C23.8937 15.6353 24.079 15.6576 24.1998 15.7638C24.3003 15.8533 24.3286 15.9743 24.3427 16.0592C24.3552 16.1441 24.3725 16.3375 24.3584 16.4885C24.2077 18.2135 23.5532 22.3996 23.2204 24.3317C23.0807 25.1492 22.8029 25.4233 22.5345 25.45C21.9506 25.5083 21.5079 25.0314 20.9428 24.6293C20.0591 23.9998 19.56 23.6081 18.7014 22.9939C17.7094 22.2842 18.353 21.894 18.918 21.2565C19.0656 21.0896 21.6366 18.5507 21.6853 18.3204C21.6915 18.2916 21.6979 18.1842 21.6382 18.1276C21.5801 18.0709 21.4938 18.0903 21.431 18.1056C21.3415 18.1275 19.9304 19.1413 17.193 21.1471C16.7927 21.446 16.4301 21.5918 16.1037 21.5841C15.7458 21.5758 15.0552 21.3639 14.5419 21.1829C13.9141 20.9608 13.4133 20.8433 13.4573 20.4661C13.4793 20.2697 13.7289 20.0688 14.2045 19.8634V19.8634Z" fill="white"/>
<defs>
<linearGradient id="paint0_linear_1103_9552" x1="36" y1="2" x2="36" y2="6" gradientUnits="userSpaceOnUse">
<stop stop-color="#2AABEE"/>
<stop offset="1" stop-color="#229ED9"/>
</linearGradient>
<linearGradient id="paint1_linear_1103_9552" x1="19.5" y1="8.5" x2="19.5" y2="31.5" gradientUnits="userSpaceOnUse">
<stop stop-color="#2AABEE"/>
<stop offset="1" stop-color="#229ED9"/>
</linearGradient>
</defs>
</svg>
