<svg width="39" height="40" viewBox="0 0 39 40" fill="none" xmlns="http://www.w3.org/2000/svg">
<rect y="0.5" width="39" height="39" rx="19.5" fill="#2CA5E0" fill-opacity="0.11"/>
<path fill-rule="evenodd" clip-rule="evenodd" d="M24.25 15C21.7978 15 20.7017 17.0644 19.5 18.375C18.2983 17.0632 17.2093 15 14.75 15C12.1268 15 10 17.0149 10 19.5C10 21.9851 12.1268 24 14.75 24C17.1654 24 18.2983 21.9356 19.5 20.625C20.7017 21.9368 21.7527 24 24.25 24C26.8732 24 29 21.9851 29 19.5C29 17.0149 26.8732 15 24.25 15ZM14.75 21.75C13.439 21.75 12.375 20.742 12.375 19.5C12.375 18.258 13.439 17.25 14.75 17.25C16.061 17.25 17.6819 19.347 17.6819 19.5C17.6819 19.5821 16.061 21.75 14.75 21.75ZM24.25 21.75C22.939 21.75 21.2812 19.653 21.2812 19.5C21.2812 19.4179 22.939 17.25 24.25 17.25C25.561 17.25 26.625 18.258 26.625 19.5C26.625 20.742 25.561 21.75 24.25 21.75Z" fill="url(#paint0_linear_1103_9651)"/>
<defs>
<linearGradient id="paint0_linear_1103_9651" x1="19.5" y1="15" x2="19.5" y2="24" gradientUnits="userSpaceOnUse">
<stop stop-color="#2AABEE"/>
<stop offset="1" stop-color="#229ED9"/>
</linearGradient>
</defs>
</svg>
