<svg width="39" height="39" viewBox="0 0 39 39" fill="none" xmlns="http://www.w3.org/2000/svg">
<rect width="39" height="39" rx="19.5" fill="#778AFF"/>
<path fill-rule="evenodd" clip-rule="evenodd" d="M10.5117 12.2241C10.5117 10.7049 11.7425 9.47412 13.2617 9.47412H22.4337C23.1629 9.47412 23.8626 9.7643 24.378 10.2798L27.206 13.1078C27.7215 13.6233 28.0117 14.323 28.0117 15.0521V26.2241C28.0117 27.7433 26.7809 28.9741 25.2617 28.9741H13.2617C11.7425 28.9741 10.5117 27.7433 10.5117 26.2241V12.2241Z" fill="white"/>
<path fill-rule="evenodd" clip-rule="evenodd" d="M10.5117 12.2241C10.5117 10.7049 11.7425 9.47412 13.2617 9.47412H22.4337C23.1629 9.47412 23.8626 9.7643 24.378 10.2798L27.206 13.1078C27.7215 13.6233 28.0117 14.323 28.0117 15.0521V26.2241C28.0117 27.7433 26.7809 28.9741 25.2617 28.9741H13.2617C11.7425 28.9741 10.5117 27.7433 10.5117 26.2241V12.2241Z" fill="white"/>
<path d="M14.3802 23.1527C13.4813 22.2538 13.4813 20.7972 14.3802 19.8983C15.2791 18.9994 16.7358 18.9994 17.6347 19.8983L19.2613 21.5261L17.6347 23.1527C16.7358 24.0516 15.278 24.0516 14.3802 23.1527V23.1527ZM24.1424 19.8994C25.0413 20.7983 25.0413 22.255 24.1424 23.1538C23.2436 24.0527 21.7869 24.0527 20.888 23.1538L19.2613 21.5261L20.888 19.8994C21.7869 19.0005 23.2447 19.0005 24.1424 19.8994Z" stroke="#778AFF" stroke-width="1.5" stroke-linecap="round" stroke-linejoin="round"/>
<path d="M22.2617 11.2241V14.8142C22.2617 15.0401 22.4457 15.2241 22.6717 15.2241H26.2617L22.2617 11.2241Z" fill="#778AFF"/>
</svg>
