<svg width="103" height="33" viewBox="0 0 103 33" fill="none" xmlns="http://www.w3.org/2000/svg">
<path fill-rule="evenodd" clip-rule="evenodd" d="M53.9505 18.3701V26.0201H50.3505V18.3701H53.9505Z" fill="#EEEAE4"/>
<path fill-rule="evenodd" clip-rule="evenodd" d="M53.9505 11.6201V15.6701H50.3505V11.6201H53.9505Z" fill="#EEEAE4"/>
<path fill-rule="evenodd" clip-rule="evenodd" d="M74.2003 18.3701V26.0201H70.6003V18.3701H74.2003Z" fill="#EEEAE4"/>
<path fill-rule="evenodd" clip-rule="evenodd" d="M74.2003 11.6201V15.6701H70.6003V11.6201H74.2003Z" fill="#EEEAE4"/>
<path fill-rule="evenodd" clip-rule="evenodd" d="M56.1998 7.12012H67.2248V26.0201H56.1998V7.12012ZM59.7998 10.7201V22.4201H63.6248V10.7201H59.7998Z" fill="#EEEAE4"/>
<path fill-rule="evenodd" clip-rule="evenodd" d="M103 5.32031V24.2203H99.4003V5.32031H103Z" fill="#EEEAE4"/>
<path fill-rule="evenodd" clip-rule="evenodd" d="M76.9001 20.6201L76.9001 11.6201L90.4001 11.6201L90.4001 20.6201L76.9001 20.6201ZM80.5001 17.0201L86.8001 17.0201L86.8001 15.2201L80.5001 15.2201L80.5001 17.0201Z" fill="#EEEAE4"/>
<path fill-rule="evenodd" clip-rule="evenodd" d="M103 26.0205L93.0998 26.0205L93.0998 11.6205L103 11.6205L103 26.0205ZM99.3998 22.4205L99.3998 15.2205L96.6998 15.2205L96.6998 22.4205L99.3998 22.4205Z" fill="#EEEAE4"/>
<path fill-rule="evenodd" clip-rule="evenodd" d="M80.5001 22.4199L80.5001 17.9199L76.9001 17.9199L76.9001 26.0199L90.4001 26.0199L90.4001 22.4199L80.5001 22.4199Z" fill="#EEEAE4"/>
<path fill-rule="evenodd" clip-rule="evenodd" d="M4 0.819824C1.79086 0.819824 0 2.61069 0 4.81982V8.17402L2.1275 10.3015L4.99119 7.43783L7.52759 9.97424L10.0643 7.43757L12.9282 10.3015L15.7918 7.43779L18.3374 9.98337L15.4737 12.847L18.3374 15.7107L15.7918 18.2563L12.9282 15.3926L10.0643 18.2565L7.52765 15.7199L4.99119 18.2564L2.1275 15.3927L0 17.5202V22.2971H10.7998V25.8971H0V28.3198C0 30.529 1.79086 32.3198 4 32.3198H26.6C28.8091 32.3198 30.6 30.529 30.6 28.3198V4.81982C30.6 2.61069 28.8091 0.819824 26.6 0.819824H4ZM7.52786 9.99233L10.3826 12.847L7.5278 15.7018L4.67309 12.8471L7.52786 9.99233Z" fill="#FF5C59"/>
</svg>
