<svg width="75" height="23" viewBox="0 0 75 23" fill="none" xmlns="http://www.w3.org/2000/svg">
<path fill-rule="evenodd" clip-rule="evenodd" d="M39.2842 12.7798V18.3502H36.6628V12.7798H39.2842Z" fill="#1F1A1E"/>
<path fill-rule="evenodd" clip-rule="evenodd" d="M39.2842 7.86475V10.8138H36.6628V7.86475H39.2842Z" fill="#1F1A1E"/>
<path fill-rule="evenodd" clip-rule="evenodd" d="M54.0292 12.7798V18.3502H51.4078V12.7798H54.0292Z" fill="#1F1A1E"/>
<path fill-rule="evenodd" clip-rule="evenodd" d="M54.0292 7.86475V10.8138H51.4078V7.86475H54.0292Z" fill="#1F1A1E"/>
<path fill-rule="evenodd" clip-rule="evenodd" d="M40.9221 4.58789H48.95V18.35H40.9221V4.58789ZM43.5435 7.20924V15.7286H46.3287V7.20924H43.5435Z" fill="#1F1A1E"/>
<path fill-rule="evenodd" clip-rule="evenodd" d="M75 3.27734V17.0394H72.3787V3.27734H75Z" fill="#1F1A1E"/>
<path fill-rule="evenodd" clip-rule="evenodd" d="M55.9951 14.418L55.9951 7.86459L65.8252 7.86459L65.8252 14.418L55.9951 14.418ZM58.6165 11.7966L63.2038 11.7966L63.2038 10.4859L58.6165 10.4859L58.6165 11.7966Z" fill="#1F1A1E"/>
<path fill-rule="evenodd" clip-rule="evenodd" d="M74.9996 18.3501L67.7909 18.3501L67.7909 7.86469L74.9996 7.86469L74.9996 18.3501ZM72.3783 15.7287L72.3783 10.486L70.4123 10.486L70.4123 15.7287L72.3783 15.7287Z" fill="#1F1A1E"/>
<path fill-rule="evenodd" clip-rule="evenodd" d="M58.6165 15.7284L58.6165 12.4517L55.9951 12.4517L55.9951 18.3497L65.8252 18.3497L65.8252 15.7284L58.6165 15.7284Z" fill="#1F1A1E"/>
<path fill-rule="evenodd" clip-rule="evenodd" d="M4 0C1.79086 0 0 1.79086 0 4V5.35512L1.54905 6.90418L3.63434 4.81889L5.48116 6.66572L7.32833 4.81856L9.41377 6.904L11.4989 4.81889L13.3524 6.67247L11.2673 8.75757L13.3524 10.8427L11.4989 12.6963L9.41377 10.6111L7.32833 12.6966L5.48134 10.8496L3.63434 12.6966L1.54905 10.6113L0 12.1604V15.6386H7.8639V18.2599H0V18.9368C0 21.146 1.79086 22.9368 4 22.9368H18.2815C20.4906 22.9368 22.2815 21.146 22.2815 18.9368V4C22.2815 1.79086 20.4906 0 18.2815 0H4ZM5.4815 6.67888L7.56019 8.75757L5.48132 10.8364L3.40263 8.75775L5.4815 6.67888Z" fill="#FF5C59"/>
</svg>
